<?xml version="1.0" encoding="utf-8"?>
<svg xmlns="http://www.w3.org/2000/svg" xmlns:xlink="http://www.w3.org/1999/xlink" xml:space="preserve" width="986" height="1108.25" viewBox="0 0 986 1108.25"><rect width="829.88333333333" height="829.88333333333" fill="#ffffff" x="82.166666666667" y="82.166666666667"/><g transform="scale(41.083333333333)" fill="#000000"><path d="M24,21h-1.7V1.7H1.7V21H0l1,2l-1,2h1v2h22v-2h1l-1-2L24,21z M2,2h20v19v1H2v-1V2z"/></g><g fill="#000000">
<g transform="translate(337,145) scale(4.12)"><rect width="6" height="6"/></g>
<g transform="translate(361,145) scale(4.12)"><rect width="6" height="6"/></g>
<g transform="translate(385,145) scale(4.12)"><rect width="6" height="6"/></g>
<g transform="translate(409,145) scale(4.12)"><rect width="6" height="6"/></g>
<g transform="translate(457,145) scale(4.12)"><rect width="6" height="6"/></g>
<g transform="translate(481,145) scale(4.12)"><rect width="6" height="6"/></g>
<g transform="translate(505,145) scale(4.12)"><rect width="6" height="6"/></g>
<g transform="translate(529,145) scale(4.12)"><rect width="6" height="6"/></g>
<g transform="translate(577,145) scale(4.12)"><rect width="6" height="6"/></g>
<g transform="translate(361,169) scale(4.12)"><rect width="6" height="6"/></g>
<g transform="translate(385,169) scale(4.12)"><rect width="6" height="6"/></g>
<g transform="translate(457,169) scale(4.12)"><rect width="6" height="6"/></g>
<g transform="translate(505,169) scale(4.12)"><rect width="6" height="6"/></g>
<g transform="translate(529,169) scale(4.12)"><rect width="6" height="6"/></g>
<g transform="translate(625,169) scale(4.12)"><rect width="6" height="6"/></g>
<g transform="translate(385,193) scale(4.12)"><rect width="6" height="6"/></g>
<g transform="translate(481,193) scale(4.12)"><rect width="6" height="6"/></g>
<g transform="translate(505,193) scale(4.12)"><rect width="6" height="6"/></g>
<g transform="translate(577,193) scale(4.12)"><rect width="6" height="6"/></g>
<g transform="translate(601,193) scale(4.12)"><rect width="6" height="6"/></g>
<g transform="translate(625,193) scale(4.12)"><rect width="6" height="6"/></g>
<g transform="translate(361,217) scale(4.12)"><rect width="6" height="6"/></g>
<g transform="translate(385,217) scale(4.12)"><rect width="6" height="6"/></g>
<g transform="translate(409,217) scale(4.12)"><rect width="6" height="6"/></g>
<g transform="translate(457,217) scale(4.12)"><rect width="6" height="6"/></g>
<g transform="translate(529,217) scale(4.12)"><rect width="6" height="6"/></g>
<g transform="translate(553,217) scale(4.12)"><rect width="6" height="6"/></g>
<g transform="translate(625,217) scale(4.12)"><rect width="6" height="6"/></g>
<g transform="translate(337,241) scale(4.12)"><rect width="6" height="6"/></g>
<g transform="translate(385,241) scale(4.12)"><rect width="6" height="6"/></g>
<g transform="translate(433,241) scale(4.12)"><rect width="6" height="6"/></g>
<g transform="translate(457,241) scale(4.12)"><rect width="6" height="6"/></g>
<g transform="translate(481,241) scale(4.12)"><rect width="6" height="6"/></g>
<g transform="translate(553,241) scale(4.12)"><rect width="6" height="6"/></g>
<g transform="translate(577,241) scale(4.12)"><rect width="6" height="6"/></g>
<g transform="translate(601,241) scale(4.12)"><rect width="6" height="6"/></g>
<g transform="translate(625,241) scale(4.12)"><rect width="6" height="6"/></g>
<g transform="translate(337,265) scale(4.12)"><rect width="6" height="6"/></g>
<g transform="translate(361,265) scale(4.12)"><rect width="6" height="6"/></g>
<g transform="translate(409,265) scale(4.12)"><rect width="6" height="6"/></g>
<g transform="translate(433,265) scale(4.12)"><rect width="6" height="6"/></g>
<g transform="translate(457,265) scale(4.12)"><rect width="6" height="6"/></g>
<g transform="translate(481,265) scale(4.12)"><rect width="6" height="6"/></g>
<g transform="translate(505,265) scale(4.12)"><rect width="6" height="6"/></g>
<g transform="translate(553,265) scale(4.12)"><rect width="6" height="6"/></g>
<g transform="translate(625,265) scale(4.12)"><rect width="6" height="6"/></g>
<g transform="translate(337,289) scale(4.12)"><rect width="6" height="6"/></g>
<g transform="translate(385,289) scale(4.12)"><rect width="6" height="6"/></g>
<g transform="translate(433,289) scale(4.12)"><rect width="6" height="6"/></g>
<g transform="translate(481,289) scale(4.12)"><rect width="6" height="6"/></g>
<g transform="translate(529,289) scale(4.12)"><rect width="6" height="6"/></g>
<g transform="translate(577,289) scale(4.12)"><rect width="6" height="6"/></g>
<g transform="translate(625,289) scale(4.12)"><rect width="6" height="6"/></g>
<g transform="translate(361,313) scale(4.12)"><rect width="6" height="6"/></g>
<g transform="translate(385,313) scale(4.12)"><rect width="6" height="6"/></g>
<g transform="translate(409,313) scale(4.12)"><rect width="6" height="6"/></g>
<g transform="translate(433,313) scale(4.12)"><rect width="6" height="6"/></g>
<g transform="translate(457,313) scale(4.12)"><rect width="6" height="6"/></g>
<g transform="translate(481,313) scale(4.12)"><rect width="6" height="6"/></g>
<g transform="translate(505,313) scale(4.12)"><rect width="6" height="6"/></g>
<g transform="translate(553,313) scale(4.12)"><rect width="6" height="6"/></g>
<g transform="translate(577,313) scale(4.12)"><rect width="6" height="6"/></g>
<g transform="translate(169,337) scale(4.12)"><rect width="6" height="6"/></g>
<g transform="translate(193,337) scale(4.12)"><rect width="6" height="6"/></g>
<g transform="translate(217,337) scale(4.12)"><rect width="6" height="6"/></g>
<g transform="translate(241,337) scale(4.12)"><rect width="6" height="6"/></g>
<g transform="translate(265,337) scale(4.12)"><rect width="6" height="6"/></g>
<g transform="translate(289,337) scale(4.12)"><rect width="6" height="6"/></g>
<g transform="translate(313,337) scale(4.12)"><rect width="6" height="6"/></g>
<g transform="translate(385,337) scale(4.12)"><rect width="6" height="6"/></g>
<g transform="translate(457,337) scale(4.12)"><rect width="6" height="6"/></g>
<g transform="translate(481,337) scale(4.12)"><rect width="6" height="6"/></g>
<g transform="translate(505,337) scale(4.12)"><rect width="6" height="6"/></g>
<g transform="translate(601,337) scale(4.12)"><rect width="6" height="6"/></g>
<g transform="translate(625,337) scale(4.12)"><rect width="6" height="6"/></g>
<g transform="translate(697,337) scale(4.12)"><rect width="6" height="6"/></g>
<g transform="translate(721,337) scale(4.12)"><rect width="6" height="6"/></g>
<g transform="translate(817,337) scale(4.12)"><rect width="6" height="6"/></g>
<g transform="translate(217,361) scale(4.12)"><rect width="6" height="6"/></g>
<g transform="translate(241,361) scale(4.12)"><rect width="6" height="6"/></g>
<g transform="translate(265,361) scale(4.12)"><rect width="6" height="6"/></g>
<g transform="translate(385,361) scale(4.12)"><rect width="6" height="6"/></g>
<g transform="translate(433,361) scale(4.12)"><rect width="6" height="6"/></g>
<g transform="translate(481,361) scale(4.12)"><rect width="6" height="6"/></g>
<g transform="translate(505,361) scale(4.12)"><rect width="6" height="6"/></g>
<g transform="translate(529,361) scale(4.12)"><rect width="6" height="6"/></g>
<g transform="translate(553,361) scale(4.12)"><rect width="6" height="6"/></g>
<g transform="translate(577,361) scale(4.12)"><rect width="6" height="6"/></g>
<g transform="translate(601,361) scale(4.12)"><rect width="6" height="6"/></g>
<g transform="translate(649,361) scale(4.12)"><rect width="6" height="6"/></g>
<g transform="translate(673,361) scale(4.12)"><rect width="6" height="6"/></g>
<g transform="translate(697,361) scale(4.12)"><rect width="6" height="6"/></g>
<g transform="translate(721,361) scale(4.12)"><rect width="6" height="6"/></g>
<g transform="translate(745,361) scale(4.12)"><rect width="6" height="6"/></g>
<g transform="translate(769,361) scale(4.12)"><rect width="6" height="6"/></g>
<g transform="translate(817,361) scale(4.12)"><rect width="6" height="6"/></g>
<g transform="translate(145,385) scale(4.12)"><rect width="6" height="6"/></g>
<g transform="translate(193,385) scale(4.12)"><rect width="6" height="6"/></g>
<g transform="translate(217,385) scale(4.12)"><rect width="6" height="6"/></g>
<g transform="translate(241,385) scale(4.12)"><rect width="6" height="6"/></g>
<g transform="translate(265,385) scale(4.12)"><rect width="6" height="6"/></g>
<g transform="translate(289,385) scale(4.12)"><rect width="6" height="6"/></g>
<g transform="translate(337,385) scale(4.12)"><rect width="6" height="6"/></g>
<g transform="translate(361,385) scale(4.12)"><rect width="6" height="6"/></g>
<g transform="translate(385,385) scale(4.12)"><rect width="6" height="6"/></g>
<g transform="translate(457,385) scale(4.12)"><rect width="6" height="6"/></g>
<g transform="translate(481,385) scale(4.12)"><rect width="6" height="6"/></g>
<g transform="translate(529,385) scale(4.12)"><rect width="6" height="6"/></g>
<g transform="translate(577,385) scale(4.12)"><rect width="6" height="6"/></g>
<g transform="translate(649,385) scale(4.12)"><rect width="6" height="6"/></g>
<g transform="translate(673,385) scale(4.12)"><rect width="6" height="6"/></g>
<g transform="translate(745,385) scale(4.12)"><rect width="6" height="6"/></g>
<g transform="translate(241,409) scale(4.12)"><rect width="6" height="6"/></g>
<g transform="translate(361,409) scale(4.12)"><rect width="6" height="6"/></g>
<g transform="translate(385,409) scale(4.12)"><rect width="6" height="6"/></g>
<g transform="translate(409,409) scale(4.12)"><rect width="6" height="6"/></g>
<g transform="translate(457,409) scale(4.12)"><rect width="6" height="6"/></g>
<g transform="translate(481,409) scale(4.12)"><rect width="6" height="6"/></g>
<g transform="translate(529,409) scale(4.12)"><rect width="6" height="6"/></g>
<g transform="translate(577,409) scale(4.12)"><rect width="6" height="6"/></g>
<g transform="translate(649,409) scale(4.12)"><rect width="6" height="6"/></g>
<g transform="translate(673,409) scale(4.12)"><rect width="6" height="6"/></g>
<g transform="translate(721,409) scale(4.12)"><rect width="6" height="6"/></g>
<g transform="translate(793,409) scale(4.12)"><rect width="6" height="6"/></g>
<g transform="translate(289,433) scale(4.12)"><rect width="6" height="6"/></g>
<g transform="translate(337,433) scale(4.12)"><rect width="6" height="6"/></g>
<g transform="translate(385,433) scale(4.12)"><rect width="6" height="6"/></g>
<g transform="translate(409,433) scale(4.12)"><rect width="6" height="6"/></g>
<g transform="translate(433,433) scale(4.12)"><rect width="6" height="6"/></g>
<g transform="translate(457,433) scale(4.12)"><rect width="6" height="6"/></g>
<g transform="translate(481,433) scale(4.12)"><rect width="6" height="6"/></g>
<g transform="translate(505,433) scale(4.12)"><rect width="6" height="6"/></g>
<g transform="translate(553,433) scale(4.12)"><rect width="6" height="6"/></g>
<g transform="translate(601,433) scale(4.12)"><rect width="6" height="6"/></g>
<g transform="translate(649,433) scale(4.12)"><rect width="6" height="6"/></g>
<g transform="translate(697,433) scale(4.12)"><rect width="6" height="6"/></g>
<g transform="translate(769,433) scale(4.12)"><rect width="6" height="6"/></g>
<g transform="translate(793,433) scale(4.12)"><rect width="6" height="6"/></g>
<g transform="translate(817,433) scale(4.12)"><rect width="6" height="6"/></g>
<g transform="translate(145,457) scale(4.12)"><rect width="6" height="6"/></g>
<g transform="translate(169,457) scale(4.12)"><rect width="6" height="6"/></g>
<g transform="translate(193,457) scale(4.12)"><rect width="6" height="6"/></g>
<g transform="translate(241,457) scale(4.12)"><rect width="6" height="6"/></g>
<g transform="translate(265,457) scale(4.12)"><rect width="6" height="6"/></g>
<g transform="translate(313,457) scale(4.12)"><rect width="6" height="6"/></g>
<g transform="translate(337,457) scale(4.12)"><rect width="6" height="6"/></g>
<g transform="translate(481,457) scale(4.12)"><rect width="6" height="6"/></g>
<g transform="translate(529,457) scale(4.12)"><rect width="6" height="6"/></g>
<g transform="translate(601,457) scale(4.12)"><rect width="6" height="6"/></g>
<g transform="translate(625,457) scale(4.12)"><rect width="6" height="6"/></g>
<g transform="translate(649,457) scale(4.12)"><rect width="6" height="6"/></g>
<g transform="translate(673,457) scale(4.12)"><rect width="6" height="6"/></g>
<g transform="translate(721,457) scale(4.12)"><rect width="6" height="6"/></g>
<g transform="translate(745,457) scale(4.12)"><rect width="6" height="6"/></g>
<g transform="translate(793,457) scale(4.12)"><rect width="6" height="6"/></g>
<g transform="translate(817,457) scale(4.12)"><rect width="6" height="6"/></g>
<g transform="translate(145,481) scale(4.12)"><rect width="6" height="6"/></g>
<g transform="translate(169,481) scale(4.12)"><rect width="6" height="6"/></g>
<g transform="translate(193,481) scale(4.12)"><rect width="6" height="6"/></g>
<g transform="translate(241,481) scale(4.12)"><rect width="6" height="6"/></g>
<g transform="translate(289,481) scale(4.12)"><rect width="6" height="6"/></g>
<g transform="translate(313,481) scale(4.12)"><rect width="6" height="6"/></g>
<g transform="translate(337,481) scale(4.12)"><rect width="6" height="6"/></g>
<g transform="translate(361,481) scale(4.12)"><rect width="6" height="6"/></g>
<g transform="translate(409,481) scale(4.12)"><rect width="6" height="6"/></g>
<g transform="translate(457,481) scale(4.12)"><rect width="6" height="6"/></g>
<g transform="translate(529,481) scale(4.12)"><rect width="6" height="6"/></g>
<g transform="translate(577,481) scale(4.12)"><rect width="6" height="6"/></g>
<g transform="translate(625,481) scale(4.12)"><rect width="6" height="6"/></g>
<g transform="translate(649,481) scale(4.12)"><rect width="6" height="6"/></g>
<g transform="translate(697,481) scale(4.12)"><rect width="6" height="6"/></g>
<g transform="translate(193,505) scale(4.12)"><rect width="6" height="6"/></g>
<g transform="translate(241,505) scale(4.12)"><rect width="6" height="6"/></g>
<g transform="translate(313,505) scale(4.12)"><rect width="6" height="6"/></g>
<g transform="translate(409,505) scale(4.12)"><rect width="6" height="6"/></g>
<g transform="translate(505,505) scale(4.12)"><rect width="6" height="6"/></g>
<g transform="translate(601,505) scale(4.12)"><rect width="6" height="6"/></g>
<g transform="translate(625,505) scale(4.12)"><rect width="6" height="6"/></g>
<g transform="translate(721,505) scale(4.12)"><rect width="6" height="6"/></g>
<g transform="translate(745,505) scale(4.12)"><rect width="6" height="6"/></g>
<g transform="translate(817,505) scale(4.12)"><rect width="6" height="6"/></g>
<g transform="translate(145,529) scale(4.12)"><rect width="6" height="6"/></g>
<g transform="translate(169,529) scale(4.12)"><rect width="6" height="6"/></g>
<g transform="translate(217,529) scale(4.12)"><rect width="6" height="6"/></g>
<g transform="translate(289,529) scale(4.12)"><rect width="6" height="6"/></g>
<g transform="translate(313,529) scale(4.12)"><rect width="6" height="6"/></g>
<g transform="translate(337,529) scale(4.12)"><rect width="6" height="6"/></g>
<g transform="translate(385,529) scale(4.12)"><rect width="6" height="6"/></g>
<g transform="translate(433,529) scale(4.12)"><rect width="6" height="6"/></g>
<g transform="translate(457,529) scale(4.12)"><rect width="6" height="6"/></g>
<g transform="translate(481,529) scale(4.12)"><rect width="6" height="6"/></g>
<g transform="translate(577,529) scale(4.12)"><rect width="6" height="6"/></g>
<g transform="translate(625,529) scale(4.12)"><rect width="6" height="6"/></g>
<g transform="translate(745,529) scale(4.12)"><rect width="6" height="6"/></g>
<g transform="translate(769,529) scale(4.12)"><rect width="6" height="6"/></g>
<g transform="translate(817,529) scale(4.12)"><rect width="6" height="6"/></g>
<g transform="translate(145,553) scale(4.12)"><rect width="6" height="6"/></g>
<g transform="translate(169,553) scale(4.12)"><rect width="6" height="6"/></g>
<g transform="translate(193,553) scale(4.12)"><rect width="6" height="6"/></g>
<g transform="translate(217,553) scale(4.12)"><rect width="6" height="6"/></g>
<g transform="translate(241,553) scale(4.12)"><rect width="6" height="6"/></g>
<g transform="translate(313,553) scale(4.12)"><rect width="6" height="6"/></g>
<g transform="translate(337,553) scale(4.12)"><rect width="6" height="6"/></g>
<g transform="translate(409,553) scale(4.12)"><rect width="6" height="6"/></g>
<g transform="translate(457,553) scale(4.12)"><rect width="6" height="6"/></g>
<g transform="translate(505,553) scale(4.12)"><rect width="6" height="6"/></g>
<g transform="translate(529,553) scale(4.12)"><rect width="6" height="6"/></g>
<g transform="translate(601,553) scale(4.12)"><rect width="6" height="6"/></g>
<g transform="translate(673,553) scale(4.12)"><rect width="6" height="6"/></g>
<g transform="translate(697,553) scale(4.12)"><rect width="6" height="6"/></g>
<g transform="translate(721,553) scale(4.12)"><rect width="6" height="6"/></g>
<g transform="translate(745,553) scale(4.12)"><rect width="6" height="6"/></g>
<g transform="translate(769,553) scale(4.12)"><rect width="6" height="6"/></g>
<g transform="translate(793,553) scale(4.12)"><rect width="6" height="6"/></g>
<g transform="translate(817,553) scale(4.12)"><rect width="6" height="6"/></g>
<g transform="translate(145,577) scale(4.12)"><rect width="6" height="6"/></g>
<g transform="translate(193,577) scale(4.12)"><rect width="6" height="6"/></g>
<g transform="translate(217,577) scale(4.12)"><rect width="6" height="6"/></g>
<g transform="translate(241,577) scale(4.12)"><rect width="6" height="6"/></g>
<g transform="translate(265,577) scale(4.12)"><rect width="6" height="6"/></g>
<g transform="translate(289,577) scale(4.12)"><rect width="6" height="6"/></g>
<g transform="translate(337,577) scale(4.12)"><rect width="6" height="6"/></g>
<g transform="translate(361,577) scale(4.12)"><rect width="6" height="6"/></g>
<g transform="translate(385,577) scale(4.12)"><rect width="6" height="6"/></g>
<g transform="translate(433,577) scale(4.12)"><rect width="6" height="6"/></g>
<g transform="translate(673,577) scale(4.12)"><rect width="6" height="6"/></g>
<g transform="translate(697,577) scale(4.12)"><rect width="6" height="6"/></g>
<g transform="translate(721,577) scale(4.12)"><rect width="6" height="6"/></g>
<g transform="translate(745,577) scale(4.12)"><rect width="6" height="6"/></g>
<g transform="translate(769,577) scale(4.12)"><rect width="6" height="6"/></g>
<g transform="translate(145,601) scale(4.12)"><rect width="6" height="6"/></g>
<g transform="translate(241,601) scale(4.12)"><rect width="6" height="6"/></g>
<g transform="translate(361,601) scale(4.12)"><rect width="6" height="6"/></g>
<g transform="translate(385,601) scale(4.12)"><rect width="6" height="6"/></g>
<g transform="translate(409,601) scale(4.12)"><rect width="6" height="6"/></g>
<g transform="translate(433,601) scale(4.12)"><rect width="6" height="6"/></g>
<g transform="translate(529,601) scale(4.12)"><rect width="6" height="6"/></g>
<g transform="translate(625,601) scale(4.12)"><rect width="6" height="6"/></g>
<g transform="translate(673,601) scale(4.12)"><rect width="6" height="6"/></g>
<g transform="translate(697,601) scale(4.12)"><rect width="6" height="6"/></g>
<g transform="translate(721,601) scale(4.12)"><rect width="6" height="6"/></g>
<g transform="translate(745,601) scale(4.12)"><rect width="6" height="6"/></g>
<g transform="translate(817,601) scale(4.12)"><rect width="6" height="6"/></g>
<g transform="translate(145,625) scale(4.12)"><rect width="6" height="6"/></g>
<g transform="translate(193,625) scale(4.12)"><rect width="6" height="6"/></g>
<g transform="translate(217,625) scale(4.12)"><rect width="6" height="6"/></g>
<g transform="translate(289,625) scale(4.12)"><rect width="6" height="6"/></g>
<g transform="translate(313,625) scale(4.12)"><rect width="6" height="6"/></g>
<g transform="translate(361,625) scale(4.12)"><rect width="6" height="6"/></g>
<g transform="translate(433,625) scale(4.12)"><rect width="6" height="6"/></g>
<g transform="translate(553,625) scale(4.12)"><rect width="6" height="6"/></g>
<g transform="translate(601,625) scale(4.12)"><rect width="6" height="6"/></g>
<g transform="translate(625,625) scale(4.12)"><rect width="6" height="6"/></g>
<g transform="translate(649,625) scale(4.12)"><rect width="6" height="6"/></g>
<g transform="translate(673,625) scale(4.12)"><rect width="6" height="6"/></g>
<g transform="translate(697,625) scale(4.12)"><rect width="6" height="6"/></g>
<g transform="translate(721,625) scale(4.12)"><rect width="6" height="6"/></g>
<g transform="translate(745,625) scale(4.12)"><rect width="6" height="6"/></g>
<g transform="translate(769,625) scale(4.12)"><rect width="6" height="6"/></g>
<g transform="translate(793,625) scale(4.12)"><rect width="6" height="6"/></g>
<g transform="translate(817,625) scale(4.12)"><rect width="6" height="6"/></g>
<g transform="translate(337,649) scale(4.12)"><rect width="6" height="6"/></g>
<g transform="translate(457,649) scale(4.12)"><rect width="6" height="6"/></g>
<g transform="translate(529,649) scale(4.12)"><rect width="6" height="6"/></g>
<g transform="translate(553,649) scale(4.12)"><rect width="6" height="6"/></g>
<g transform="translate(577,649) scale(4.12)"><rect width="6" height="6"/></g>
<g transform="translate(625,649) scale(4.12)"><rect width="6" height="6"/></g>
<g transform="translate(721,649) scale(4.12)"><rect width="6" height="6"/></g>
<g transform="translate(745,649) scale(4.12)"><rect width="6" height="6"/></g>
<g transform="translate(793,649) scale(4.12)"><rect width="6" height="6"/></g>
<g transform="translate(817,649) scale(4.12)"><rect width="6" height="6"/></g>
<g transform="translate(337,673) scale(4.12)"><rect width="6" height="6"/></g>
<g transform="translate(361,673) scale(4.12)"><rect width="6" height="6"/></g>
<g transform="translate(505,673) scale(4.12)"><rect width="6" height="6"/></g>
<g transform="translate(553,673) scale(4.12)"><rect width="6" height="6"/></g>
<g transform="translate(601,673) scale(4.12)"><rect width="6" height="6"/></g>
<g transform="translate(625,673) scale(4.12)"><rect width="6" height="6"/></g>
<g transform="translate(673,673) scale(4.12)"><rect width="6" height="6"/></g>
<g transform="translate(721,673) scale(4.12)"><rect width="6" height="6"/></g>
<g transform="translate(337,697) scale(4.12)"><rect width="6" height="6"/></g>
<g transform="translate(361,697) scale(4.12)"><rect width="6" height="6"/></g>
<g transform="translate(457,697) scale(4.12)"><rect width="6" height="6"/></g>
<g transform="translate(481,697) scale(4.12)"><rect width="6" height="6"/></g>
<g transform="translate(529,697) scale(4.12)"><rect width="6" height="6"/></g>
<g transform="translate(553,697) scale(4.12)"><rect width="6" height="6"/></g>
<g transform="translate(577,697) scale(4.12)"><rect width="6" height="6"/></g>
<g transform="translate(601,697) scale(4.12)"><rect width="6" height="6"/></g>
<g transform="translate(625,697) scale(4.12)"><rect width="6" height="6"/></g>
<g transform="translate(721,697) scale(4.12)"><rect width="6" height="6"/></g>
<g transform="translate(745,697) scale(4.12)"><rect width="6" height="6"/></g>
<g transform="translate(817,697) scale(4.12)"><rect width="6" height="6"/></g>
<g transform="translate(337,721) scale(4.12)"><rect width="6" height="6"/></g>
<g transform="translate(433,721) scale(4.12)"><rect width="6" height="6"/></g>
<g transform="translate(457,721) scale(4.12)"><rect width="6" height="6"/></g>
<g transform="translate(481,721) scale(4.12)"><rect width="6" height="6"/></g>
<g transform="translate(529,721) scale(4.12)"><rect width="6" height="6"/></g>
<g transform="translate(625,721) scale(4.12)"><rect width="6" height="6"/></g>
<g transform="translate(649,721) scale(4.12)"><rect width="6" height="6"/></g>
<g transform="translate(673,721) scale(4.12)"><rect width="6" height="6"/></g>
<g transform="translate(697,721) scale(4.12)"><rect width="6" height="6"/></g>
<g transform="translate(721,721) scale(4.12)"><rect width="6" height="6"/></g>
<g transform="translate(745,721) scale(4.12)"><rect width="6" height="6"/></g>
<g transform="translate(769,721) scale(4.12)"><rect width="6" height="6"/></g>
<g transform="translate(793,721) scale(4.12)"><rect width="6" height="6"/></g>
<g transform="translate(337,745) scale(4.12)"><rect width="6" height="6"/></g>
<g transform="translate(361,745) scale(4.12)"><rect width="6" height="6"/></g>
<g transform="translate(385,745) scale(4.12)"><rect width="6" height="6"/></g>
<g transform="translate(409,745) scale(4.12)"><rect width="6" height="6"/></g>
<g transform="translate(433,745) scale(4.12)"><rect width="6" height="6"/></g>
<g transform="translate(457,745) scale(4.12)"><rect width="6" height="6"/></g>
<g transform="translate(481,745) scale(4.12)"><rect width="6" height="6"/></g>
<g transform="translate(505,745) scale(4.12)"><rect width="6" height="6"/></g>
<g transform="translate(577,745) scale(4.12)"><rect width="6" height="6"/></g>
<g transform="translate(601,745) scale(4.12)"><rect width="6" height="6"/></g>
<g transform="translate(625,745) scale(4.12)"><rect width="6" height="6"/></g>
<g transform="translate(649,745) scale(4.12)"><rect width="6" height="6"/></g>
<g transform="translate(697,745) scale(4.12)"><rect width="6" height="6"/></g>
<g transform="translate(337,769) scale(4.12)"><rect width="6" height="6"/></g>
<g transform="translate(361,769) scale(4.12)"><rect width="6" height="6"/></g>
<g transform="translate(409,769) scale(4.12)"><rect width="6" height="6"/></g>
<g transform="translate(433,769) scale(4.12)"><rect width="6" height="6"/></g>
<g transform="translate(505,769) scale(4.12)"><rect width="6" height="6"/></g>
<g transform="translate(529,769) scale(4.12)"><rect width="6" height="6"/></g>
<g transform="translate(553,769) scale(4.12)"><rect width="6" height="6"/></g>
<g transform="translate(577,769) scale(4.12)"><rect width="6" height="6"/></g>
<g transform="translate(601,769) scale(4.12)"><rect width="6" height="6"/></g>
<g transform="translate(625,769) scale(4.12)"><rect width="6" height="6"/></g>
<g transform="translate(649,769) scale(4.12)"><rect width="6" height="6"/></g>
<g transform="translate(673,769) scale(4.12)"><rect width="6" height="6"/></g>
<g transform="translate(697,769) scale(4.12)"><rect width="6" height="6"/></g>
<g transform="translate(721,769) scale(4.12)"><rect width="6" height="6"/></g>
<g transform="translate(745,769) scale(4.12)"><rect width="6" height="6"/></g>
<g transform="translate(769,769) scale(4.12)"><rect width="6" height="6"/></g>
<g transform="translate(793,769) scale(4.12)"><rect width="6" height="6"/></g>
<g transform="translate(337,793) scale(4.12)"><rect width="6" height="6"/></g>
<g transform="translate(385,793) scale(4.12)"><rect width="6" height="6"/></g>
<g transform="translate(433,793) scale(4.12)"><rect width="6" height="6"/></g>
<g transform="translate(457,793) scale(4.12)"><rect width="6" height="6"/></g>
<g transform="translate(505,793) scale(4.12)"><rect width="6" height="6"/></g>
<g transform="translate(577,793) scale(4.12)"><rect width="6" height="6"/></g>
<g transform="translate(625,793) scale(4.12)"><rect width="6" height="6"/></g>
<g transform="translate(649,793) scale(4.12)"><rect width="6" height="6"/></g>
<g transform="translate(721,793) scale(4.12)"><rect width="6" height="6"/></g>
<g transform="translate(745,793) scale(4.12)"><rect width="6" height="6"/></g>
<g transform="translate(793,793) scale(4.12)"><rect width="6" height="6"/></g>
<g transform="translate(361,817) scale(4.12)"><rect width="6" height="6"/></g>
<g transform="translate(409,817) scale(4.12)"><rect width="6" height="6"/></g>
<g transform="translate(505,817) scale(4.12)"><rect width="6" height="6"/></g>
<g transform="translate(553,817) scale(4.12)"><rect width="6" height="6"/></g>
<g transform="translate(577,817) scale(4.12)"><rect width="6" height="6"/></g>
<g transform="translate(601,817) scale(4.12)"><rect width="6" height="6"/></g>
<g transform="translate(673,817) scale(4.12)"><rect width="6" height="6"/></g>
<g transform="translate(721,817) scale(4.12)"><rect width="6" height="6"/></g>
<g transform="translate(769,817) scale(4.12)"><rect width="6" height="6"/></g>
<g transform="translate(145,145)"><g transform="scale(12)"><path d="M0,7L0,7c0,3.9,3.1,7,7,7h0c3.9,0,7-3.1,7-7v0c0-3.9-3.1-7-7-7h0C3.1,0,0,3.1,0,7z M7,12L7,12c-2.8,0-5-2.2-5-5v0 c0-2.8,2.2-5,5-5h0c2.8,0,5,2.2,5,5v0C12,9.8,9.8,12,7,12z"/></g></g>
<g transform="translate(673,145)"><g transform="scale(12)"><path d="M0,7L0,7c0,3.9,3.1,7,7,7h0c3.9,0,7-3.1,7-7v0c0-3.9-3.1-7-7-7h0C3.1,0,0,3.1,0,7z M7,12L7,12c-2.8,0-5-2.2-5-5v0 c0-2.8,2.2-5,5-5h0c2.8,0,5,2.2,5,5v0C12,9.8,9.8,12,7,12z"/></g></g>
<g transform="translate(145,673)"><g transform="scale(12)"><path d="M0,7L0,7c0,3.9,3.1,7,7,7h0c3.9,0,7-3.1,7-7v0c0-3.9-3.1-7-7-7h0C3.1,0,0,3.1,0,7z M7,12L7,12c-2.8,0-5-2.2-5-5v0 c0-2.8,2.2-5,5-5h0c2.8,0,5,2.2,5,5v0C12,9.8,9.8,12,7,12z"/></g></g>
<g transform="translate(193,193)"><g transform="scale(12)"><circle cx="3" cy="3" r="3"/></g></g>
<g transform="translate(721,193)"><g transform="scale(12)"><circle cx="3" cy="3" r="3"/></g></g>
<g transform="translate(193,721)"><g transform="scale(12)"><circle cx="3" cy="3" r="3"/></g></g>
</g><g transform="translate(283.26958333333,890.13888888889) scale(1.3694444444444)"><path fill="#FFFFFF" d="M5.2,120q0-4.2,0.3-6.5l45.4,0q0,4.9-0.3,6.5l-45.4,0z M77.6,141.25q-3.4,1.15-6.6,1.15t-5.2-1.8t-2-5.15t4.3-6.35t8.5-4.1l4.3-1l1.5-8q-5.8,4.4-11.15,4.4t-8.7-4.1t-3.35-13.1q0-11.8,5.3-19.65t14-7.85q4.9,0,9.7,2.4q5.1-1.8,11-1.8l2.1,0.1q0.3,1.2,0.3,3.4q0,8.8-6.3,39.5q-1.1,6.3-4,11.05t-6.6,7.25t-7.1,3.65z M83,81.6q-4.3,0-6.8,6.95t-2.5,15.4t3.8,8.45q2.5,0,5.9-1.9q2.8-16.8,4-27.7q-2.8-1.2-4.4-1.2z M68.3,135.2q0,1.9,2.25,1.9t4.95-2.55t4.3-6.25q-3.3,0.4-7.4,2.45t-4.1,4.45z M123.1,96.35q-2.7,10.25-2.7,13.4t0.9,3.15q0.6,0,4.6-1.9l1.2-0.6l1.7,3.5q-0.9,0.8-2.4,2t-5.6,3.25t-7.6,2.05t-5.5-2.15t-2-5.8t2.5-13t2.5-12.15q0-4.2-2.6-7.9l-0.9-1.2l0.1-1.3q5.3-1.5,17.2-1.5q1.3,1.5,1.3,5.7t-2.7,14.45z M112.4,60q0-3.3,2.75-5.8t6.35-2.5t5.6,2t2,5.25t-2.85,5.75t-6.35,2.5t-5.5-1.95t-2-5.25z M163.6,76.9q-0.2,2.5-1.7,5.8q-3.8-0.4-7.2-0.4l-1.8,0q-4.6,22.3-4.6,27.8q0,2.9,1.25,2.9t6.65-2.5l1.8,3.3q-8.9,7.4-16.5,7.4q-3.5,0-5.75-2.2t-2.25-5.85t0.85-8.25t2.35-11.25t2.2-10.75q-3.7,0.3-5.5,0.6q-0.2-1.2-0.2-3.25t0.3-3.35l6.3,0q0.8-5.4,0.8-10.2l-0.1-3.1l0-0.3q7.8-2.7,14.7-2.7q0.4,2,0.4,5t-1.7,11.3l9.7,0z M173.5,54q0-3.3-0.6-4.7q7.8-2.7,14.7-2.7q0.9,0.9,0.9,4.6q0,6.6-5.6,30.4q8.1-5.9,14.2-5.9q3.8,0,5.75,2.4t1.95,6.35t-2.3,12.9t-2.3,12.25t0.8,3.3t4.2-1.8l1.2-0.6l1.8,3.5q-0.9,0.8-2.4,2t-5.5,3.2t-7.35,2t-5.35-2.15t-2-5.8t2.25-13.3t2.25-12.2t-2.1-2.55q-2.6,0-6.5,2.2q-5.5,24.2-5.5,31.4q-4.2,1.6-14.3,1.6q-0.1-1.7-0.1-3q0-4.3,5.95-29.4t5.95-34z M214.8,97.85q2.6-10.35,2.6-12.7t-3.6-6.25l0.1-1.3q6.8-1.4,17.9-1.4q0.5,1.3,0.5,4.7t-2.8,14.5t-2.8,13.8t2,2.7q2.9,0,6.7-2.1q0.4-2.4,2-9.2q3.6-16,3.6-22.9q3.5-1.4,12.6-1.4l1.9,0q0,4.7-2.8,18.35t-2.8,16t1,2.35q0.6,0,5.7-2.4l1.9,3.2q-8.9,7.4-15.6,7.4q-3.2,0-5.45-1.8t-2.55-4.7q-8.1,6.6-14.7,6.6q-3.5,0-5.75-2.3t-2.25-6.55t2.6-14.6z M287.2,50.2q0,7.6-5.1,29.8q6-4.3,10.85-4.3t8.3,4.05t3.45,12.35q0,13.9-5.45,21.5t-13.25,7.6q-2.9,0-5.85-0.7t-4.45-1.5l-1.5-0.7q-6.4,2.2-12.5,2.2q-0.6-0.5-0.6-4.85t5.6-28.8t5.6-33.45q0-1.6-0.5-4.1q7.8-2.7,14.9-2.7q0.5,1.4,0.5,3.6z M286.3,84.2q-1.9,0-5.7,1.8q-4.6,19.4-5,27.8q3,1.3,5.7,1.3q3.8,0,6.35-7t2.55-15.45t-3.9-8.45z"/></g></svg>
