<?xml version="1.0" encoding="utf-8"?>
<svg xmlns="http://www.w3.org/2000/svg" xmlns:xlink="http://www.w3.org/1999/xlink" xml:space="preserve" width="1138.5" height="1158.21875" viewBox="0 0 1138.5 1158.21875"><rect width="670.76625" height="670.76625" fill="#ffffff" x="237.1875" y="237.1875"/><g transform="scale(47.4375)" fill="#010c15"><path d="M17.6,0H6.4c-1,0-1.8,0.8-1.8,1.8v20.4c0,1,0.8,1.8,1.8,1.8h11.1c1,0,1.8-0.8,1.8-1.8V1.8C19.4,0.8,18.6,0,17.6,0z M11.2,2.3h2.7c0.1,0,0.2,0.1,0.2,0.2S14,2.7,13.9,2.7h-2.7c-0.1,0-0.2-0.1-0.2-0.2S11.1,2.3,11.2,2.3z M10.1,2.3 c0.1,0,0.2,0.1,0.2,0.2s-0.1,0.2-0.2,0.2c-0.1,0-0.2-0.1-0.2-0.2S10,2.3,10.1,2.3z M19,19H5V5h14V19z"/></g><g fill="#010c15">
<g transform="translate(416.25,272.25) scale(3.09)"><rect width="6" height="6"/></g>
<g transform="translate(470.25,272.25) scale(3.09)"><rect width="6" height="6"/></g>
<g transform="translate(488.25,272.25) scale(3.09)"><rect width="6" height="6"/></g>
<g transform="translate(506.25,272.25) scale(3.09)"><rect width="6" height="6"/></g>
<g transform="translate(524.25,272.25) scale(3.09)"><rect width="6" height="6"/></g>
<g transform="translate(578.25,272.25) scale(3.09)"><rect width="6" height="6"/></g>
<g transform="translate(596.25,272.25) scale(3.09)"><rect width="6" height="6"/></g>
<g transform="translate(614.25,272.25) scale(3.09)"><rect width="6" height="6"/></g>
<g transform="translate(632.25,272.25) scale(3.09)"><rect width="6" height="6"/></g>
<g transform="translate(650.25,272.25) scale(3.09)"><rect width="6" height="6"/></g>
<g transform="translate(668.25,272.25) scale(3.09)"><rect width="6" height="6"/></g>
<g transform="translate(686.25,272.25) scale(3.09)"><rect width="6" height="6"/></g>
<g transform="translate(470.25,290.25) scale(3.09)"><rect width="6" height="6"/></g>
<g transform="translate(488.25,290.25) scale(3.09)"><rect width="6" height="6"/></g>
<g transform="translate(524.25,290.25) scale(3.09)"><rect width="6" height="6"/></g>
<g transform="translate(578.25,290.25) scale(3.09)"><rect width="6" height="6"/></g>
<g transform="translate(632.25,290.25) scale(3.09)"><rect width="6" height="6"/></g>
<g transform="translate(650.25,290.25) scale(3.09)"><rect width="6" height="6"/></g>
<g transform="translate(668.25,290.25) scale(3.09)"><rect width="6" height="6"/></g>
<g transform="translate(434.25,308.25) scale(3.09)"><rect width="6" height="6"/></g>
<g transform="translate(506.25,308.25) scale(3.09)"><rect width="6" height="6"/></g>
<g transform="translate(560.25,308.25) scale(3.09)"><rect width="6" height="6"/></g>
<g transform="translate(578.25,308.25) scale(3.09)"><rect width="6" height="6"/></g>
<g transform="translate(596.25,308.25) scale(3.09)"><rect width="6" height="6"/></g>
<g transform="translate(614.25,308.25) scale(3.09)"><rect width="6" height="6"/></g>
<g transform="translate(650.25,308.25) scale(3.09)"><rect width="6" height="6"/></g>
<g transform="translate(668.25,308.25) scale(3.09)"><rect width="6" height="6"/></g>
<g transform="translate(452.25,326.25) scale(3.09)"><rect width="6" height="6"/></g>
<g transform="translate(524.25,326.25) scale(3.09)"><rect width="6" height="6"/></g>
<g transform="translate(632.25,326.25) scale(3.09)"><rect width="6" height="6"/></g>
<g transform="translate(668.25,326.25) scale(3.09)"><rect width="6" height="6"/></g>
<g transform="translate(704.25,326.25) scale(3.09)"><rect width="6" height="6"/></g>
<g transform="translate(416.25,344.25) scale(3.09)"><rect width="6" height="6"/></g>
<g transform="translate(452.25,344.25) scale(3.09)"><rect width="6" height="6"/></g>
<g transform="translate(542.25,344.25) scale(3.09)"><rect width="6" height="6"/></g>
<g transform="translate(578.25,344.25) scale(3.09)"><rect width="6" height="6"/></g>
<g transform="translate(596.25,344.25) scale(3.09)"><rect width="6" height="6"/></g>
<g transform="translate(686.25,344.25) scale(3.09)"><rect width="6" height="6"/></g>
<g transform="translate(416.25,362.25) scale(3.09)"><rect width="6" height="6"/></g>
<g transform="translate(488.25,362.25) scale(3.09)"><rect width="6" height="6"/></g>
<g transform="translate(542.25,362.25) scale(3.09)"><rect width="6" height="6"/></g>
<g transform="translate(560.25,362.25) scale(3.09)"><rect width="6" height="6"/></g>
<g transform="translate(578.25,362.25) scale(3.09)"><rect width="6" height="6"/></g>
<g transform="translate(632.25,362.25) scale(3.09)"><rect width="6" height="6"/></g>
<g transform="translate(650.25,362.25) scale(3.09)"><rect width="6" height="6"/></g>
<g transform="translate(704.25,362.25) scale(3.09)"><rect width="6" height="6"/></g>
<g transform="translate(416.25,380.25) scale(3.09)"><rect width="6" height="6"/></g>
<g transform="translate(452.25,380.25) scale(3.09)"><rect width="6" height="6"/></g>
<g transform="translate(488.25,380.25) scale(3.09)"><rect width="6" height="6"/></g>
<g transform="translate(524.25,380.25) scale(3.09)"><rect width="6" height="6"/></g>
<g transform="translate(560.25,380.25) scale(3.09)"><rect width="6" height="6"/></g>
<g transform="translate(596.25,380.25) scale(3.09)"><rect width="6" height="6"/></g>
<g transform="translate(632.25,380.25) scale(3.09)"><rect width="6" height="6"/></g>
<g transform="translate(668.25,380.25) scale(3.09)"><rect width="6" height="6"/></g>
<g transform="translate(704.25,380.25) scale(3.09)"><rect width="6" height="6"/></g>
<g transform="translate(434.25,398.25) scale(3.09)"><rect width="6" height="6"/></g>
<g transform="translate(452.25,398.25) scale(3.09)"><rect width="6" height="6"/></g>
<g transform="translate(488.25,398.25) scale(3.09)"><rect width="6" height="6"/></g>
<g transform="translate(506.25,398.25) scale(3.09)"><rect width="6" height="6"/></g>
<g transform="translate(524.25,398.25) scale(3.09)"><rect width="6" height="6"/></g>
<g transform="translate(560.25,398.25) scale(3.09)"><rect width="6" height="6"/></g>
<g transform="translate(650.25,398.25) scale(3.09)"><rect width="6" height="6"/></g>
<g transform="translate(686.25,398.25) scale(3.09)"><rect width="6" height="6"/></g>
<g transform="translate(704.25,398.25) scale(3.09)"><rect width="6" height="6"/></g>
<g transform="translate(290.25,416.25) scale(3.09)"><rect width="6" height="6"/></g>
<g transform="translate(308.25,416.25) scale(3.09)"><rect width="6" height="6"/></g>
<g transform="translate(326.25,416.25) scale(3.09)"><rect width="6" height="6"/></g>
<g transform="translate(344.25,416.25) scale(3.09)"><rect width="6" height="6"/></g>
<g transform="translate(362.25,416.25) scale(3.09)"><rect width="6" height="6"/></g>
<g transform="translate(380.25,416.25) scale(3.09)"><rect width="6" height="6"/></g>
<g transform="translate(398.25,416.25) scale(3.09)"><rect width="6" height="6"/></g>
<g transform="translate(452.25,416.25) scale(3.09)"><rect width="6" height="6"/></g>
<g transform="translate(470.25,416.25) scale(3.09)"><rect width="6" height="6"/></g>
<g transform="translate(506.25,416.25) scale(3.09)"><rect width="6" height="6"/></g>
<g transform="translate(524.25,416.25) scale(3.09)"><rect width="6" height="6"/></g>
<g transform="translate(578.25,416.25) scale(3.09)"><rect width="6" height="6"/></g>
<g transform="translate(632.25,416.25) scale(3.09)"><rect width="6" height="6"/></g>
<g transform="translate(668.25,416.25) scale(3.09)"><rect width="6" height="6"/></g>
<g transform="translate(686.25,416.25) scale(3.09)"><rect width="6" height="6"/></g>
<g transform="translate(704.25,416.25) scale(3.09)"><rect width="6" height="6"/></g>
<g transform="translate(758.25,416.25) scale(3.09)"><rect width="6" height="6"/></g>
<g transform="translate(776.25,416.25) scale(3.09)"><rect width="6" height="6"/></g>
<g transform="translate(848.25,416.25) scale(3.09)"><rect width="6" height="6"/></g>
<g transform="translate(272.25,434.25) scale(3.09)"><rect width="6" height="6"/></g>
<g transform="translate(398.25,434.25) scale(3.09)"><rect width="6" height="6"/></g>
<g transform="translate(416.25,434.25) scale(3.09)"><rect width="6" height="6"/></g>
<g transform="translate(434.25,434.25) scale(3.09)"><rect width="6" height="6"/></g>
<g transform="translate(488.25,434.25) scale(3.09)"><rect width="6" height="6"/></g>
<g transform="translate(560.25,434.25) scale(3.09)"><rect width="6" height="6"/></g>
<g transform="translate(614.25,434.25) scale(3.09)"><rect width="6" height="6"/></g>
<g transform="translate(632.25,434.25) scale(3.09)"><rect width="6" height="6"/></g>
<g transform="translate(650.25,434.25) scale(3.09)"><rect width="6" height="6"/></g>
<g transform="translate(686.25,434.25) scale(3.09)"><rect width="6" height="6"/></g>
<g transform="translate(740.25,434.25) scale(3.09)"><rect width="6" height="6"/></g>
<g transform="translate(758.25,434.25) scale(3.09)"><rect width="6" height="6"/></g>
<g transform="translate(794.25,434.25) scale(3.09)"><rect width="6" height="6"/></g>
<g transform="translate(812.25,434.25) scale(3.09)"><rect width="6" height="6"/></g>
<g transform="translate(848.25,434.25) scale(3.09)"><rect width="6" height="6"/></g>
<g transform="translate(272.25,452.25) scale(3.09)"><rect width="6" height="6"/></g>
<g transform="translate(290.25,452.25) scale(3.09)"><rect width="6" height="6"/></g>
<g transform="translate(308.25,452.25) scale(3.09)"><rect width="6" height="6"/></g>
<g transform="translate(326.25,452.25) scale(3.09)"><rect width="6" height="6"/></g>
<g transform="translate(362.25,452.25) scale(3.09)"><rect width="6" height="6"/></g>
<g transform="translate(380.25,452.25) scale(3.09)"><rect width="6" height="6"/></g>
<g transform="translate(416.25,452.25) scale(3.09)"><rect width="6" height="6"/></g>
<g transform="translate(452.25,452.25) scale(3.09)"><rect width="6" height="6"/></g>
<g transform="translate(488.25,452.25) scale(3.09)"><rect width="6" height="6"/></g>
<g transform="translate(596.25,452.25) scale(3.09)"><rect width="6" height="6"/></g>
<g transform="translate(704.25,452.25) scale(3.09)"><rect width="6" height="6"/></g>
<g transform="translate(776.25,452.25) scale(3.09)"><rect width="6" height="6"/></g>
<g transform="translate(812.25,452.25) scale(3.09)"><rect width="6" height="6"/></g>
<g transform="translate(830.25,452.25) scale(3.09)"><rect width="6" height="6"/></g>
<g transform="translate(272.25,470.25) scale(3.09)"><rect width="6" height="6"/></g>
<g transform="translate(308.25,470.25) scale(3.09)"><rect width="6" height="6"/></g>
<g transform="translate(326.25,470.25) scale(3.09)"><rect width="6" height="6"/></g>
<g transform="translate(344.25,470.25) scale(3.09)"><rect width="6" height="6"/></g>
<g transform="translate(362.25,470.25) scale(3.09)"><rect width="6" height="6"/></g>
<g transform="translate(416.25,470.25) scale(3.09)"><rect width="6" height="6"/></g>
<g transform="translate(470.25,470.25) scale(3.09)"><rect width="6" height="6"/></g>
<g transform="translate(506.25,470.25) scale(3.09)"><rect width="6" height="6"/></g>
<g transform="translate(632.25,470.25) scale(3.09)"><rect width="6" height="6"/></g>
<g transform="translate(650.25,470.25) scale(3.09)"><rect width="6" height="6"/></g>
<g transform="translate(668.25,470.25) scale(3.09)"><rect width="6" height="6"/></g>
<g transform="translate(686.25,470.25) scale(3.09)"><rect width="6" height="6"/></g>
<g transform="translate(740.25,470.25) scale(3.09)"><rect width="6" height="6"/></g>
<g transform="translate(776.25,470.25) scale(3.09)"><rect width="6" height="6"/></g>
<g transform="translate(794.25,470.25) scale(3.09)"><rect width="6" height="6"/></g>
<g transform="translate(812.25,470.25) scale(3.09)"><rect width="6" height="6"/></g>
<g transform="translate(848.25,470.25) scale(3.09)"><rect width="6" height="6"/></g>
<g transform="translate(272.25,488.25) scale(3.09)"><rect width="6" height="6"/></g>
<g transform="translate(326.25,488.25) scale(3.09)"><rect width="6" height="6"/></g>
<g transform="translate(380.25,488.25) scale(3.09)"><rect width="6" height="6"/></g>
<g transform="translate(416.25,488.25) scale(3.09)"><rect width="6" height="6"/></g>
<g transform="translate(434.25,488.25) scale(3.09)"><rect width="6" height="6"/></g>
<g transform="translate(470.25,488.25) scale(3.09)"><rect width="6" height="6"/></g>
<g transform="translate(488.25,488.25) scale(3.09)"><rect width="6" height="6"/></g>
<g transform="translate(506.25,488.25) scale(3.09)"><rect width="6" height="6"/></g>
<g transform="translate(524.25,488.25) scale(3.09)"><rect width="6" height="6"/></g>
<g transform="translate(542.25,488.25) scale(3.09)"><rect width="6" height="6"/></g>
<g transform="translate(560.25,488.25) scale(3.09)"><rect width="6" height="6"/></g>
<g transform="translate(596.25,488.25) scale(3.09)"><rect width="6" height="6"/></g>
<g transform="translate(614.25,488.25) scale(3.09)"><rect width="6" height="6"/></g>
<g transform="translate(668.25,488.25) scale(3.09)"><rect width="6" height="6"/></g>
<g transform="translate(686.25,488.25) scale(3.09)"><rect width="6" height="6"/></g>
<g transform="translate(704.25,488.25) scale(3.09)"><rect width="6" height="6"/></g>
<g transform="translate(776.25,488.25) scale(3.09)"><rect width="6" height="6"/></g>
<g transform="translate(794.25,488.25) scale(3.09)"><rect width="6" height="6"/></g>
<g transform="translate(830.25,488.25) scale(3.09)"><rect width="6" height="6"/></g>
<g transform="translate(848.25,488.25) scale(3.09)"><rect width="6" height="6"/></g>
<g transform="translate(290.25,506.25) scale(3.09)"><rect width="6" height="6"/></g>
<g transform="translate(308.25,506.25) scale(3.09)"><rect width="6" height="6"/></g>
<g transform="translate(326.25,506.25) scale(3.09)"><rect width="6" height="6"/></g>
<g transform="translate(344.25,506.25) scale(3.09)"><rect width="6" height="6"/></g>
<g transform="translate(416.25,506.25) scale(3.09)"><rect width="6" height="6"/></g>
<g transform="translate(452.25,506.25) scale(3.09)"><rect width="6" height="6"/></g>
<g transform="translate(506.25,506.25) scale(3.09)"><rect width="6" height="6"/></g>
<g transform="translate(542.25,506.25) scale(3.09)"><rect width="6" height="6"/></g>
<g transform="translate(578.25,506.25) scale(3.09)"><rect width="6" height="6"/></g>
<g transform="translate(632.25,506.25) scale(3.09)"><rect width="6" height="6"/></g>
<g transform="translate(650.25,506.25) scale(3.09)"><rect width="6" height="6"/></g>
<g transform="translate(668.25,506.25) scale(3.09)"><rect width="6" height="6"/></g>
<g transform="translate(686.25,506.25) scale(3.09)"><rect width="6" height="6"/></g>
<g transform="translate(740.25,506.25) scale(3.09)"><rect width="6" height="6"/></g>
<g transform="translate(812.25,506.25) scale(3.09)"><rect width="6" height="6"/></g>
<g transform="translate(830.25,506.25) scale(3.09)"><rect width="6" height="6"/></g>
<g transform="translate(848.25,506.25) scale(3.09)"><rect width="6" height="6"/></g>
<g transform="translate(308.25,524.25) scale(3.09)"><rect width="6" height="6"/></g>
<g transform="translate(344.25,524.25) scale(3.09)"><rect width="6" height="6"/></g>
<g transform="translate(380.25,524.25) scale(3.09)"><rect width="6" height="6"/></g>
<g transform="translate(416.25,524.25) scale(3.09)"><rect width="6" height="6"/></g>
<g transform="translate(488.25,524.25) scale(3.09)"><rect width="6" height="6"/></g>
<g transform="translate(506.25,524.25) scale(3.09)"><rect width="6" height="6"/></g>
<g transform="translate(524.25,524.25) scale(3.09)"><rect width="6" height="6"/></g>
<g transform="translate(614.25,524.25) scale(3.09)"><rect width="6" height="6"/></g>
<g transform="translate(650.25,524.25) scale(3.09)"><rect width="6" height="6"/></g>
<g transform="translate(668.25,524.25) scale(3.09)"><rect width="6" height="6"/></g>
<g transform="translate(722.25,524.25) scale(3.09)"><rect width="6" height="6"/></g>
<g transform="translate(740.25,524.25) scale(3.09)"><rect width="6" height="6"/></g>
<g transform="translate(794.25,524.25) scale(3.09)"><rect width="6" height="6"/></g>
<g transform="translate(830.25,524.25) scale(3.09)"><rect width="6" height="6"/></g>
<g transform="translate(326.25,542.25) scale(3.09)"><rect width="6" height="6"/></g>
<g transform="translate(344.25,542.25) scale(3.09)"><rect width="6" height="6"/></g>
<g transform="translate(362.25,542.25) scale(3.09)"><rect width="6" height="6"/></g>
<g transform="translate(398.25,542.25) scale(3.09)"><rect width="6" height="6"/></g>
<g transform="translate(416.25,542.25) scale(3.09)"><rect width="6" height="6"/></g>
<g transform="translate(506.25,542.25) scale(3.09)"><rect width="6" height="6"/></g>
<g transform="translate(560.25,542.25) scale(3.09)"><rect width="6" height="6"/></g>
<g transform="translate(578.25,542.25) scale(3.09)"><rect width="6" height="6"/></g>
<g transform="translate(596.25,542.25) scale(3.09)"><rect width="6" height="6"/></g>
<g transform="translate(614.25,542.25) scale(3.09)"><rect width="6" height="6"/></g>
<g transform="translate(632.25,542.25) scale(3.09)"><rect width="6" height="6"/></g>
<g transform="translate(650.25,542.25) scale(3.09)"><rect width="6" height="6"/></g>
<g transform="translate(668.25,542.25) scale(3.09)"><rect width="6" height="6"/></g>
<g transform="translate(686.25,542.25) scale(3.09)"><rect width="6" height="6"/></g>
<g transform="translate(722.25,542.25) scale(3.09)"><rect width="6" height="6"/></g>
<g transform="translate(740.25,542.25) scale(3.09)"><rect width="6" height="6"/></g>
<g transform="translate(758.25,542.25) scale(3.09)"><rect width="6" height="6"/></g>
<g transform="translate(794.25,542.25) scale(3.09)"><rect width="6" height="6"/></g>
<g transform="translate(812.25,542.25) scale(3.09)"><rect width="6" height="6"/></g>
<g transform="translate(290.25,560.25) scale(3.09)"><rect width="6" height="6"/></g>
<g transform="translate(344.25,560.25) scale(3.09)"><rect width="6" height="6"/></g>
<g transform="translate(380.25,560.25) scale(3.09)"><rect width="6" height="6"/></g>
<g transform="translate(398.25,560.25) scale(3.09)"><rect width="6" height="6"/></g>
<g transform="translate(434.25,560.25) scale(3.09)"><rect width="6" height="6"/></g>
<g transform="translate(452.25,560.25) scale(3.09)"><rect width="6" height="6"/></g>
<g transform="translate(524.25,560.25) scale(3.09)"><rect width="6" height="6"/></g>
<g transform="translate(578.25,560.25) scale(3.09)"><rect width="6" height="6"/></g>
<g transform="translate(596.25,560.25) scale(3.09)"><rect width="6" height="6"/></g>
<g transform="translate(614.25,560.25) scale(3.09)"><rect width="6" height="6"/></g>
<g transform="translate(668.25,560.25) scale(3.09)"><rect width="6" height="6"/></g>
<g transform="translate(686.25,560.25) scale(3.09)"><rect width="6" height="6"/></g>
<g transform="translate(704.25,560.25) scale(3.09)"><rect width="6" height="6"/></g>
<g transform="translate(722.25,560.25) scale(3.09)"><rect width="6" height="6"/></g>
<g transform="translate(758.25,560.25) scale(3.09)"><rect width="6" height="6"/></g>
<g transform="translate(776.25,560.25) scale(3.09)"><rect width="6" height="6"/></g>
<g transform="translate(848.25,560.25) scale(3.09)"><rect width="6" height="6"/></g>
<g transform="translate(308.25,578.25) scale(3.09)"><rect width="6" height="6"/></g>
<g transform="translate(344.25,578.25) scale(3.09)"><rect width="6" height="6"/></g>
<g transform="translate(362.25,578.25) scale(3.09)"><rect width="6" height="6"/></g>
<g transform="translate(434.25,578.25) scale(3.09)"><rect width="6" height="6"/></g>
<g transform="translate(470.25,578.25) scale(3.09)"><rect width="6" height="6"/></g>
<g transform="translate(488.25,578.25) scale(3.09)"><rect width="6" height="6"/></g>
<g transform="translate(506.25,578.25) scale(3.09)"><rect width="6" height="6"/></g>
<g transform="translate(524.25,578.25) scale(3.09)"><rect width="6" height="6"/></g>
<g transform="translate(542.25,578.25) scale(3.09)"><rect width="6" height="6"/></g>
<g transform="translate(578.25,578.25) scale(3.09)"><rect width="6" height="6"/></g>
<g transform="translate(614.25,578.25) scale(3.09)"><rect width="6" height="6"/></g>
<g transform="translate(632.25,578.25) scale(3.09)"><rect width="6" height="6"/></g>
<g transform="translate(650.25,578.25) scale(3.09)"><rect width="6" height="6"/></g>
<g transform="translate(668.25,578.25) scale(3.09)"><rect width="6" height="6"/></g>
<g transform="translate(686.25,578.25) scale(3.09)"><rect width="6" height="6"/></g>
<g transform="translate(704.25,578.25) scale(3.09)"><rect width="6" height="6"/></g>
<g transform="translate(722.25,578.25) scale(3.09)"><rect width="6" height="6"/></g>
<g transform="translate(740.25,578.25) scale(3.09)"><rect width="6" height="6"/></g>
<g transform="translate(758.25,578.25) scale(3.09)"><rect width="6" height="6"/></g>
<g transform="translate(794.25,578.25) scale(3.09)"><rect width="6" height="6"/></g>
<g transform="translate(812.25,578.25) scale(3.09)"><rect width="6" height="6"/></g>
<g transform="translate(848.25,578.25) scale(3.09)"><rect width="6" height="6"/></g>
<g transform="translate(272.25,596.25) scale(3.09)"><rect width="6" height="6"/></g>
<g transform="translate(308.25,596.25) scale(3.09)"><rect width="6" height="6"/></g>
<g transform="translate(344.25,596.25) scale(3.09)"><rect width="6" height="6"/></g>
<g transform="translate(380.25,596.25) scale(3.09)"><rect width="6" height="6"/></g>
<g transform="translate(398.25,596.25) scale(3.09)"><rect width="6" height="6"/></g>
<g transform="translate(416.25,596.25) scale(3.09)"><rect width="6" height="6"/></g>
<g transform="translate(434.25,596.25) scale(3.09)"><rect width="6" height="6"/></g>
<g transform="translate(524.25,596.25) scale(3.09)"><rect width="6" height="6"/></g>
<g transform="translate(632.25,596.25) scale(3.09)"><rect width="6" height="6"/></g>
<g transform="translate(650.25,596.25) scale(3.09)"><rect width="6" height="6"/></g>
<g transform="translate(668.25,596.25) scale(3.09)"><rect width="6" height="6"/></g>
<g transform="translate(722.25,596.25) scale(3.09)"><rect width="6" height="6"/></g>
<g transform="translate(740.25,596.25) scale(3.09)"><rect width="6" height="6"/></g>
<g transform="translate(758.25,596.25) scale(3.09)"><rect width="6" height="6"/></g>
<g transform="translate(776.25,596.25) scale(3.09)"><rect width="6" height="6"/></g>
<g transform="translate(812.25,596.25) scale(3.09)"><rect width="6" height="6"/></g>
<g transform="translate(308.25,614.25) scale(3.09)"><rect width="6" height="6"/></g>
<g transform="translate(326.25,614.25) scale(3.09)"><rect width="6" height="6"/></g>
<g transform="translate(398.25,614.25) scale(3.09)"><rect width="6" height="6"/></g>
<g transform="translate(434.25,614.25) scale(3.09)"><rect width="6" height="6"/></g>
<g transform="translate(452.25,614.25) scale(3.09)"><rect width="6" height="6"/></g>
<g transform="translate(488.25,614.25) scale(3.09)"><rect width="6" height="6"/></g>
<g transform="translate(506.25,614.25) scale(3.09)"><rect width="6" height="6"/></g>
<g transform="translate(632.25,614.25) scale(3.09)"><rect width="6" height="6"/></g>
<g transform="translate(650.25,614.25) scale(3.09)"><rect width="6" height="6"/></g>
<g transform="translate(686.25,614.25) scale(3.09)"><rect width="6" height="6"/></g>
<g transform="translate(722.25,614.25) scale(3.09)"><rect width="6" height="6"/></g>
<g transform="translate(740.25,614.25) scale(3.09)"><rect width="6" height="6"/></g>
<g transform="translate(758.25,614.25) scale(3.09)"><rect width="6" height="6"/></g>
<g transform="translate(776.25,614.25) scale(3.09)"><rect width="6" height="6"/></g>
<g transform="translate(794.25,614.25) scale(3.09)"><rect width="6" height="6"/></g>
<g transform="translate(812.25,614.25) scale(3.09)"><rect width="6" height="6"/></g>
<g transform="translate(830.25,614.25) scale(3.09)"><rect width="6" height="6"/></g>
<g transform="translate(290.25,632.25) scale(3.09)"><rect width="6" height="6"/></g>
<g transform="translate(308.25,632.25) scale(3.09)"><rect width="6" height="6"/></g>
<g transform="translate(344.25,632.25) scale(3.09)"><rect width="6" height="6"/></g>
<g transform="translate(380.25,632.25) scale(3.09)"><rect width="6" height="6"/></g>
<g transform="translate(398.25,632.25) scale(3.09)"><rect width="6" height="6"/></g>
<g transform="translate(416.25,632.25) scale(3.09)"><rect width="6" height="6"/></g>
<g transform="translate(434.25,632.25) scale(3.09)"><rect width="6" height="6"/></g>
<g transform="translate(452.25,632.25) scale(3.09)"><rect width="6" height="6"/></g>
<g transform="translate(488.25,632.25) scale(3.09)"><rect width="6" height="6"/></g>
<g transform="translate(524.25,632.25) scale(3.09)"><rect width="6" height="6"/></g>
<g transform="translate(542.25,632.25) scale(3.09)"><rect width="6" height="6"/></g>
<g transform="translate(560.25,632.25) scale(3.09)"><rect width="6" height="6"/></g>
<g transform="translate(632.25,632.25) scale(3.09)"><rect width="6" height="6"/></g>
<g transform="translate(668.25,632.25) scale(3.09)"><rect width="6" height="6"/></g>
<g transform="translate(704.25,632.25) scale(3.09)"><rect width="6" height="6"/></g>
<g transform="translate(722.25,632.25) scale(3.09)"><rect width="6" height="6"/></g>
<g transform="translate(758.25,632.25) scale(3.09)"><rect width="6" height="6"/></g>
<g transform="translate(776.25,632.25) scale(3.09)"><rect width="6" height="6"/></g>
<g transform="translate(794.25,632.25) scale(3.09)"><rect width="6" height="6"/></g>
<g transform="translate(272.25,650.25) scale(3.09)"><rect width="6" height="6"/></g>
<g transform="translate(290.25,650.25) scale(3.09)"><rect width="6" height="6"/></g>
<g transform="translate(326.25,650.25) scale(3.09)"><rect width="6" height="6"/></g>
<g transform="translate(398.25,650.25) scale(3.09)"><rect width="6" height="6"/></g>
<g transform="translate(434.25,650.25) scale(3.09)"><rect width="6" height="6"/></g>
<g transform="translate(470.25,650.25) scale(3.09)"><rect width="6" height="6"/></g>
<g transform="translate(488.25,650.25) scale(3.09)"><rect width="6" height="6"/></g>
<g transform="translate(524.25,650.25) scale(3.09)"><rect width="6" height="6"/></g>
<g transform="translate(542.25,650.25) scale(3.09)"><rect width="6" height="6"/></g>
<g transform="translate(578.25,650.25) scale(3.09)"><rect width="6" height="6"/></g>
<g transform="translate(650.25,650.25) scale(3.09)"><rect width="6" height="6"/></g>
<g transform="translate(668.25,650.25) scale(3.09)"><rect width="6" height="6"/></g>
<g transform="translate(686.25,650.25) scale(3.09)"><rect width="6" height="6"/></g>
<g transform="translate(722.25,650.25) scale(3.09)"><rect width="6" height="6"/></g>
<g transform="translate(740.25,650.25) scale(3.09)"><rect width="6" height="6"/></g>
<g transform="translate(794.25,650.25) scale(3.09)"><rect width="6" height="6"/></g>
<g transform="translate(848.25,650.25) scale(3.09)"><rect width="6" height="6"/></g>
<g transform="translate(272.25,668.25) scale(3.09)"><rect width="6" height="6"/></g>
<g transform="translate(308.25,668.25) scale(3.09)"><rect width="6" height="6"/></g>
<g transform="translate(362.25,668.25) scale(3.09)"><rect width="6" height="6"/></g>
<g transform="translate(380.25,668.25) scale(3.09)"><rect width="6" height="6"/></g>
<g transform="translate(398.25,668.25) scale(3.09)"><rect width="6" height="6"/></g>
<g transform="translate(416.25,668.25) scale(3.09)"><rect width="6" height="6"/></g>
<g transform="translate(434.25,668.25) scale(3.09)"><rect width="6" height="6"/></g>
<g transform="translate(452.25,668.25) scale(3.09)"><rect width="6" height="6"/></g>
<g transform="translate(488.25,668.25) scale(3.09)"><rect width="6" height="6"/></g>
<g transform="translate(506.25,668.25) scale(3.09)"><rect width="6" height="6"/></g>
<g transform="translate(542.25,668.25) scale(3.09)"><rect width="6" height="6"/></g>
<g transform="translate(632.25,668.25) scale(3.09)"><rect width="6" height="6"/></g>
<g transform="translate(650.25,668.25) scale(3.09)"><rect width="6" height="6"/></g>
<g transform="translate(704.25,668.25) scale(3.09)"><rect width="6" height="6"/></g>
<g transform="translate(722.25,668.25) scale(3.09)"><rect width="6" height="6"/></g>
<g transform="translate(758.25,668.25) scale(3.09)"><rect width="6" height="6"/></g>
<g transform="translate(776.25,668.25) scale(3.09)"><rect width="6" height="6"/></g>
<g transform="translate(794.25,668.25) scale(3.09)"><rect width="6" height="6"/></g>
<g transform="translate(830.25,668.25) scale(3.09)"><rect width="6" height="6"/></g>
<g transform="translate(272.25,686.25) scale(3.09)"><rect width="6" height="6"/></g>
<g transform="translate(308.25,686.25) scale(3.09)"><rect width="6" height="6"/></g>
<g transform="translate(344.25,686.25) scale(3.09)"><rect width="6" height="6"/></g>
<g transform="translate(362.25,686.25) scale(3.09)"><rect width="6" height="6"/></g>
<g transform="translate(398.25,686.25) scale(3.09)"><rect width="6" height="6"/></g>
<g transform="translate(452.25,686.25) scale(3.09)"><rect width="6" height="6"/></g>
<g transform="translate(506.25,686.25) scale(3.09)"><rect width="6" height="6"/></g>
<g transform="translate(524.25,686.25) scale(3.09)"><rect width="6" height="6"/></g>
<g transform="translate(578.25,686.25) scale(3.09)"><rect width="6" height="6"/></g>
<g transform="translate(596.25,686.25) scale(3.09)"><rect width="6" height="6"/></g>
<g transform="translate(650.25,686.25) scale(3.09)"><rect width="6" height="6"/></g>
<g transform="translate(668.25,686.25) scale(3.09)"><rect width="6" height="6"/></g>
<g transform="translate(686.25,686.25) scale(3.09)"><rect width="6" height="6"/></g>
<g transform="translate(704.25,686.25) scale(3.09)"><rect width="6" height="6"/></g>
<g transform="translate(722.25,686.25) scale(3.09)"><rect width="6" height="6"/></g>
<g transform="translate(740.25,686.25) scale(3.09)"><rect width="6" height="6"/></g>
<g transform="translate(776.25,686.25) scale(3.09)"><rect width="6" height="6"/></g>
<g transform="translate(794.25,686.25) scale(3.09)"><rect width="6" height="6"/></g>
<g transform="translate(812.25,686.25) scale(3.09)"><rect width="6" height="6"/></g>
<g transform="translate(272.25,704.25) scale(3.09)"><rect width="6" height="6"/></g>
<g transform="translate(344.25,704.25) scale(3.09)"><rect width="6" height="6"/></g>
<g transform="translate(380.25,704.25) scale(3.09)"><rect width="6" height="6"/></g>
<g transform="translate(398.25,704.25) scale(3.09)"><rect width="6" height="6"/></g>
<g transform="translate(470.25,704.25) scale(3.09)"><rect width="6" height="6"/></g>
<g transform="translate(488.25,704.25) scale(3.09)"><rect width="6" height="6"/></g>
<g transform="translate(506.25,704.25) scale(3.09)"><rect width="6" height="6"/></g>
<g transform="translate(542.25,704.25) scale(3.09)"><rect width="6" height="6"/></g>
<g transform="translate(596.25,704.25) scale(3.09)"><rect width="6" height="6"/></g>
<g transform="translate(668.25,704.25) scale(3.09)"><rect width="6" height="6"/></g>
<g transform="translate(704.25,704.25) scale(3.09)"><rect width="6" height="6"/></g>
<g transform="translate(722.25,704.25) scale(3.09)"><rect width="6" height="6"/></g>
<g transform="translate(740.25,704.25) scale(3.09)"><rect width="6" height="6"/></g>
<g transform="translate(758.25,704.25) scale(3.09)"><rect width="6" height="6"/></g>
<g transform="translate(776.25,704.25) scale(3.09)"><rect width="6" height="6"/></g>
<g transform="translate(848.25,704.25) scale(3.09)"><rect width="6" height="6"/></g>
<g transform="translate(416.25,722.25) scale(3.09)"><rect width="6" height="6"/></g>
<g transform="translate(434.25,722.25) scale(3.09)"><rect width="6" height="6"/></g>
<g transform="translate(470.25,722.25) scale(3.09)"><rect width="6" height="6"/></g>
<g transform="translate(488.25,722.25) scale(3.09)"><rect width="6" height="6"/></g>
<g transform="translate(506.25,722.25) scale(3.09)"><rect width="6" height="6"/></g>
<g transform="translate(560.25,722.25) scale(3.09)"><rect width="6" height="6"/></g>
<g transform="translate(578.25,722.25) scale(3.09)"><rect width="6" height="6"/></g>
<g transform="translate(614.25,722.25) scale(3.09)"><rect width="6" height="6"/></g>
<g transform="translate(632.25,722.25) scale(3.09)"><rect width="6" height="6"/></g>
<g transform="translate(650.25,722.25) scale(3.09)"><rect width="6" height="6"/></g>
<g transform="translate(668.25,722.25) scale(3.09)"><rect width="6" height="6"/></g>
<g transform="translate(686.25,722.25) scale(3.09)"><rect width="6" height="6"/></g>
<g transform="translate(704.25,722.25) scale(3.09)"><rect width="6" height="6"/></g>
<g transform="translate(776.25,722.25) scale(3.09)"><rect width="6" height="6"/></g>
<g transform="translate(812.25,722.25) scale(3.09)"><rect width="6" height="6"/></g>
<g transform="translate(848.25,722.25) scale(3.09)"><rect width="6" height="6"/></g>
<g transform="translate(416.25,740.25) scale(3.09)"><rect width="6" height="6"/></g>
<g transform="translate(470.25,740.25) scale(3.09)"><rect width="6" height="6"/></g>
<g transform="translate(524.25,740.25) scale(3.09)"><rect width="6" height="6"/></g>
<g transform="translate(560.25,740.25) scale(3.09)"><rect width="6" height="6"/></g>
<g transform="translate(632.25,740.25) scale(3.09)"><rect width="6" height="6"/></g>
<g transform="translate(686.25,740.25) scale(3.09)"><rect width="6" height="6"/></g>
<g transform="translate(704.25,740.25) scale(3.09)"><rect width="6" height="6"/></g>
<g transform="translate(740.25,740.25) scale(3.09)"><rect width="6" height="6"/></g>
<g transform="translate(776.25,740.25) scale(3.09)"><rect width="6" height="6"/></g>
<g transform="translate(812.25,740.25) scale(3.09)"><rect width="6" height="6"/></g>
<g transform="translate(830.25,740.25) scale(3.09)"><rect width="6" height="6"/></g>
<g transform="translate(416.25,758.25) scale(3.09)"><rect width="6" height="6"/></g>
<g transform="translate(434.25,758.25) scale(3.09)"><rect width="6" height="6"/></g>
<g transform="translate(452.25,758.25) scale(3.09)"><rect width="6" height="6"/></g>
<g transform="translate(470.25,758.25) scale(3.09)"><rect width="6" height="6"/></g>
<g transform="translate(506.25,758.25) scale(3.09)"><rect width="6" height="6"/></g>
<g transform="translate(578.25,758.25) scale(3.09)"><rect width="6" height="6"/></g>
<g transform="translate(650.25,758.25) scale(3.09)"><rect width="6" height="6"/></g>
<g transform="translate(668.25,758.25) scale(3.09)"><rect width="6" height="6"/></g>
<g transform="translate(686.25,758.25) scale(3.09)"><rect width="6" height="6"/></g>
<g transform="translate(704.25,758.25) scale(3.09)"><rect width="6" height="6"/></g>
<g transform="translate(776.25,758.25) scale(3.09)"><rect width="6" height="6"/></g>
<g transform="translate(794.25,758.25) scale(3.09)"><rect width="6" height="6"/></g>
<g transform="translate(812.25,758.25) scale(3.09)"><rect width="6" height="6"/></g>
<g transform="translate(830.25,758.25) scale(3.09)"><rect width="6" height="6"/></g>
<g transform="translate(848.25,758.25) scale(3.09)"><rect width="6" height="6"/></g>
<g transform="translate(416.25,776.25) scale(3.09)"><rect width="6" height="6"/></g>
<g transform="translate(434.25,776.25) scale(3.09)"><rect width="6" height="6"/></g>
<g transform="translate(470.25,776.25) scale(3.09)"><rect width="6" height="6"/></g>
<g transform="translate(506.25,776.25) scale(3.09)"><rect width="6" height="6"/></g>
<g transform="translate(542.25,776.25) scale(3.09)"><rect width="6" height="6"/></g>
<g transform="translate(560.25,776.25) scale(3.09)"><rect width="6" height="6"/></g>
<g transform="translate(578.25,776.25) scale(3.09)"><rect width="6" height="6"/></g>
<g transform="translate(596.25,776.25) scale(3.09)"><rect width="6" height="6"/></g>
<g transform="translate(614.25,776.25) scale(3.09)"><rect width="6" height="6"/></g>
<g transform="translate(650.25,776.25) scale(3.09)"><rect width="6" height="6"/></g>
<g transform="translate(704.25,776.25) scale(3.09)"><rect width="6" height="6"/></g>
<g transform="translate(722.25,776.25) scale(3.09)"><rect width="6" height="6"/></g>
<g transform="translate(740.25,776.25) scale(3.09)"><rect width="6" height="6"/></g>
<g transform="translate(758.25,776.25) scale(3.09)"><rect width="6" height="6"/></g>
<g transform="translate(776.25,776.25) scale(3.09)"><rect width="6" height="6"/></g>
<g transform="translate(794.25,776.25) scale(3.09)"><rect width="6" height="6"/></g>
<g transform="translate(416.25,794.25) scale(3.09)"><rect width="6" height="6"/></g>
<g transform="translate(488.25,794.25) scale(3.09)"><rect width="6" height="6"/></g>
<g transform="translate(506.25,794.25) scale(3.09)"><rect width="6" height="6"/></g>
<g transform="translate(524.25,794.25) scale(3.09)"><rect width="6" height="6"/></g>
<g transform="translate(542.25,794.25) scale(3.09)"><rect width="6" height="6"/></g>
<g transform="translate(560.25,794.25) scale(3.09)"><rect width="6" height="6"/></g>
<g transform="translate(632.25,794.25) scale(3.09)"><rect width="6" height="6"/></g>
<g transform="translate(650.25,794.25) scale(3.09)"><rect width="6" height="6"/></g>
<g transform="translate(686.25,794.25) scale(3.09)"><rect width="6" height="6"/></g>
<g transform="translate(722.25,794.25) scale(3.09)"><rect width="6" height="6"/></g>
<g transform="translate(776.25,794.25) scale(3.09)"><rect width="6" height="6"/></g>
<g transform="translate(794.25,794.25) scale(3.09)"><rect width="6" height="6"/></g>
<g transform="translate(848.25,794.25) scale(3.09)"><rect width="6" height="6"/></g>
<g transform="translate(416.25,812.25) scale(3.09)"><rect width="6" height="6"/></g>
<g transform="translate(434.25,812.25) scale(3.09)"><rect width="6" height="6"/></g>
<g transform="translate(488.25,812.25) scale(3.09)"><rect width="6" height="6"/></g>
<g transform="translate(506.25,812.25) scale(3.09)"><rect width="6" height="6"/></g>
<g transform="translate(614.25,812.25) scale(3.09)"><rect width="6" height="6"/></g>
<g transform="translate(650.25,812.25) scale(3.09)"><rect width="6" height="6"/></g>
<g transform="translate(668.25,812.25) scale(3.09)"><rect width="6" height="6"/></g>
<g transform="translate(686.25,812.25) scale(3.09)"><rect width="6" height="6"/></g>
<g transform="translate(704.25,812.25) scale(3.09)"><rect width="6" height="6"/></g>
<g transform="translate(722.25,812.25) scale(3.09)"><rect width="6" height="6"/></g>
<g transform="translate(740.25,812.25) scale(3.09)"><rect width="6" height="6"/></g>
<g transform="translate(758.25,812.25) scale(3.09)"><rect width="6" height="6"/></g>
<g transform="translate(794.25,812.25) scale(3.09)"><rect width="6" height="6"/></g>
<g transform="translate(812.25,812.25) scale(3.09)"><rect width="6" height="6"/></g>
<g transform="translate(416.25,830.25) scale(3.09)"><rect width="6" height="6"/></g>
<g transform="translate(506.25,830.25) scale(3.09)"><rect width="6" height="6"/></g>
<g transform="translate(524.25,830.25) scale(3.09)"><rect width="6" height="6"/></g>
<g transform="translate(578.25,830.25) scale(3.09)"><rect width="6" height="6"/></g>
<g transform="translate(614.25,830.25) scale(3.09)"><rect width="6" height="6"/></g>
<g transform="translate(632.25,830.25) scale(3.09)"><rect width="6" height="6"/></g>
<g transform="translate(650.25,830.25) scale(3.09)"><rect width="6" height="6"/></g>
<g transform="translate(668.25,830.25) scale(3.09)"><rect width="6" height="6"/></g>
<g transform="translate(686.25,830.25) scale(3.09)"><rect width="6" height="6"/></g>
<g transform="translate(776.25,830.25) scale(3.09)"><rect width="6" height="6"/></g>
<g transform="translate(812.25,830.25) scale(3.09)"><rect width="6" height="6"/></g>
<g transform="translate(452.25,848.25) scale(3.09)"><rect width="6" height="6"/></g>
<g transform="translate(470.25,848.25) scale(3.09)"><rect width="6" height="6"/></g>
<g transform="translate(506.25,848.25) scale(3.09)"><rect width="6" height="6"/></g>
<g transform="translate(524.25,848.25) scale(3.09)"><rect width="6" height="6"/></g>
<g transform="translate(560.25,848.25) scale(3.09)"><rect width="6" height="6"/></g>
<g transform="translate(614.25,848.25) scale(3.09)"><rect width="6" height="6"/></g>
<g transform="translate(668.25,848.25) scale(3.09)"><rect width="6" height="6"/></g>
<g transform="translate(686.25,848.25) scale(3.09)"><rect width="6" height="6"/></g>
<g transform="translate(704.25,848.25) scale(3.09)"><rect width="6" height="6"/></g>
<g transform="translate(758.25,848.25) scale(3.09)"><rect width="6" height="6"/></g>
<g transform="translate(830.25,848.25) scale(3.09)"><rect width="6" height="6"/></g>
<g transform="translate(272.25,272.25)"><g transform="scale(9)"><path d="M0,0v14h14V0H0z M12,12H2V2h10V12z"/></g></g>
<g transform="translate(740.25,272.25)"><g transform="scale(9)"><path d="M0,0v14h14V0H0z M12,12H2V2h10V12z"/></g></g>
<g transform="translate(272.25,740.25)"><g transform="scale(9)"><path d="M0,0v14h14V0H0z M12,12H2V2h10V12z"/></g></g>
<g transform="translate(308.25,308.25)"><g transform="scale(9)"><rect width="6" height="6"/></g></g>
<g transform="translate(776.25,308.25)"><g transform="scale(9)"><rect width="6" height="6"/></g></g>
<g transform="translate(308.25,776.25)"><g transform="scale(9)"><rect width="6" height="6"/></g></g>
</g><g transform="translate(471.24,1002.31414647) scale(0.41310853530032)"><path fill="#FFFFFF" d="M7.6,142.8q-4.8,0-5.6-2.9q-0.5-1.5-0.5-4t0.45-4t1.45-2.1q1.7-0.8,4.3-0.8l67.3,0q4.8,0,5.6,3q0.5,1.5,0.5,3.95t-0.45,3.95t-1.45,2.1q-1.5,0.8-4.3,0.8l-67.3,0z M86.6,134.3l0-58.4q0-2.3,0.15-3.4t0.85-2.5q1.4-2.7,6.7-2.7t7.15,1.35t2.15,3.95q3.8-5.2,11.95-5.2t15.45,7.7t7.3,17.9t-7.25,17.9t-15.45,7.7t-11.9-4.6l0,20.2q0,2.3-0.15,3.4t-0.9,2.55t-2.55,2.05t-4.9,0.6t-4.95-0.6t-2.6-2t-0.9-2.5t-0.15-3.4z M104.1,93.1q0,3.2,2.35,5.85t6,2.65t6.2-2.6t2.55-5.9t-2.4-5.95t-6.25-2.65t-6.15,2.7t-2.3,5.9z M183.75,69.95q1.25,1.45,1.25,4.65t-1.9,7t-5.5,3.8q-1.8,0-3.45-0.8t-4.35-0.8t-5.05,1.9t-2.35,4.6l0,21q0,2.3-0.15,3.45t-0.95,2.65q-1.5,2.6-7.8,2.6q-4.8,0-6.9-1.7q-1.6-1.4-1.8-4.3l0-2.9l0-35.1q0-2.3,0.15-3.45t0.85-2.55q1.4-2.7,7.8-2.7q6,0,7.5,2.3q1.1,1.6,1.1,3.3q0.5-0.7,1.45-1.7t4.05-2.7t5.45-1.7t3.95,0.25t3.5,0.85t3.15,2.05z M197.4,73.9q8.4-7.8,19.2-7.8t19.1,7.75t8.3,19.75q0,8.3-4.3,14.75t-10.45,9.5t-12.75,3.05t-12.8-3.25t-10.45-9.6t-4.25-14.35q0-12,8.4-19.8z M216.4,103.3q3.3,0,6.6-2.5t3.3-7.4t-3.1-7.3t-6.7-2.4t-6.7,2.5t-3.1,7.35t3.2,7.3t6.5,2.45z M259,60q-3.1,0-4.9-0.6t-2.55-2.05t-0.9-2.6t-0.15-3.45t0.15-3.4t0.85-2.5q1.4-2.6,7.7-2.6q6,0,7.5,2.6q0.7,1.3,0.85,2.4t0.15,3.3l0,0.6q0,2.2-0.15,3.3t-0.95,2.5t-2.65,1.95t-4.95,0.55z M259.2,67q3.1,0,4.9,0.6t2.55,2.05t0.9,2.6t0.15,3.45l0,41.2q0,11.7-8.1,18.7t-17.8,7q-2.3,0-3.4-0.15t-2.5-0.85q-2.6-1.4-2.6-7.3t2.15-7.4t5.8-1.5t6.45-2t2.8-7.2l0-41.2q0-3.5,0.95-5.15t2.8-2.25t4.95-0.6z M323.45,96.45q-3.05,2.95-6.75,2.95l-23.7,0q0,2.8,3.3,4.7t6.6,1.9q5.8,0,9.1-1.2l1.1-0.4q2.4-1.1,4-1.1q3.2,0,5.5,4.5q1.3,2.7,1.3,4.6q0,8.9-21.3,8.9q-7.4,0-13.15-2.55t-8.95-6.75q-6.3-8.1-6.3-18.1q0-12.6,8.15-20.15t20.35-7.55q13.9,0,20.4,9.8q3.4,5.2,3.4,11.35t-3.05,9.1z M305.4,90.3q3.8,0,3.8-3.2q0-2.3-1.75-3.7t-5-1.4t-6.45,2.65t-3.2,5.65l12.6,0z M352.3,100.25q2.8,2.35,5.95,2.35t5.9-1.85t4.45-1.85q3,0,7.3,5.3q2.3,2.9,2.3,5.2q0,3.8-5.5,7.1q-5.7,4-14,4q-9.3,0-17.9-6.7q-4.1-3.2-6.7-8.55t-2.6-11.8t2.6-11.7t6.7-8.45q8.3-6.6,17.7-6.6q3.8,0,7.4,1.05t5.3,2.05l1.6,1q1.8,1.2,2.8,1.9q2.6,2,2.6,4.55t-2.1,5.75q-3.6,5.5-6.9,5.5q-1.9,0-5.4-2.2q-1.8-1.7-5.15-1.7t-6.25,2.4t-2.9,6.65t2.8,6.6z M415.3,85l-6.5-0.4l0,13.8q0,2.7,0.85,3.9t3.2,1.2t3.6,0.15t2.65,0.95q2.3,1.3,2.3,6.7q0,6.3-2.8,7.7q-1.5,0.7-2.65,0.85t-3.35,0.15q-10.4,0-15.8-4.7t-5.4-15.9l0-14.8q-1.9,0.3-4.1,0.3t-3.65-1.7t-1.45-5.8t0.5-5.95t1.4-2.65q1.6-1.3,4-1.3l3.3,0.4l0-10.3q0-2.3,0.15-3.4t0.95-2.4q1.3-2.5,7.7-2.5q6.8,0,8.1,3.7q0.5,1.6,0.5,5.1l0,9.8q4.4-0.4,6.65-0.4t3.4,0.15t2.65,0.95q2.6,1.3,2.6,7.7q0,6.3-2.7,7.7q-1.5,0.7-2.65,0.85t-3.45,0.15z M430,115.3q-1.9-1.2-1.9-3.8t3.8-7.9q1.1-1.7,3.55-1.7t6.65,2.45t7.6,2.45q6.1,0,6.1-2.4q0-1.9-6.7-2.8q-6.3-0.9-12.5-4.7q-2.9-1.8-4.8-5.65t-1.9-9.15q0-15.8,21.7-15.8q7.1,0,14.6,3.4q3.5,1.6,3.5,4t-2.2,5.9t-4.5,3.5q-1.2,0-4.45-1.5t-7.05-1.5q-5.9,0-5.9,2.2q0,3,6.8,3.9q6.6,0.7,12.8,3.8q2.9,1.4,4.85,4.85t1.95,8.65t-1.95,8.85t-5.45,5.45q-6.4,3.1-16.05,3.1t-18.55-5.6z"/></g></svg>
