<svg width="28" height="28" viewBox="0 0 28 28" fill="none" xmlns="http://www.w3.org/2000/svg">
<rect width="28" height="28" rx="2" fill="#86E1F9"/>
<path d="M14 15.2776C13.6611 15.2776 13.3362 15.143 13.0966 14.9034C12.857 14.6638 12.7224 14.3388 12.7224 14C12.7224 13.6612 12.857 13.3362 13.0966 13.0966C13.3362 12.857 13.6611 12.7224 14 12.7224C14.3388 12.7224 14.6638 12.857 14.9034 13.0966C15.143 13.3362 15.2776 13.6612 15.2776 14C15.2776 14.3388 15.143 14.6638 14.9034 14.9034C14.6638 15.143 14.3388 15.2776 14 15.2776ZM13.5503 17.8277C13.6993 18.0066 13.8492 18.1803 14 18.3464C14.1507 18.1803 14.3006 18.0074 14.4497 17.8277C14.1499 17.8341 13.85 17.8341 13.5503 17.8277ZM11.851 17.7213C11.1969 17.6532 10.5472 17.5485 9.90481 17.4078C9.84092 17.7059 9.79238 17.9955 9.76001 18.2732C9.59818 19.6215 9.82389 20.4409 10.1671 20.6385C10.5104 20.8369 11.3323 20.6223 12.42 19.8089C12.644 19.6411 12.8697 19.4545 13.0963 19.251C12.6529 18.7647 12.2372 18.254 11.851 17.7213ZM18.0951 17.4078C17.4844 17.5441 16.832 17.6497 16.1489 17.7213C15.7627 18.254 15.347 18.7647 14.9037 19.251C15.1302 19.4554 15.3559 19.6411 15.5799 19.8089C16.6676 20.6223 17.4895 20.8369 17.8328 20.6385C18.1761 20.4409 18.4009 19.6215 18.2408 18.2732C18.2056 17.9827 18.1573 17.6939 18.096 17.4078H18.0951ZM19.3302 17.0782C19.8216 19.3259 19.5635 21.1154 18.4716 21.7457C17.3797 22.376 15.7009 21.7048 14 20.1555C12.299 21.7048 10.6203 22.3752 9.52834 21.7449C8.43641 21.1146 8.17833 19.3259 8.66893 17.0773C6.47655 16.3798 5.0567 15.2606 5.0567 14C5.0567 12.7394 6.47655 11.6211 8.66893 10.9218C8.17833 8.67407 8.43641 6.88457 9.52834 6.25428C10.6203 5.62399 12.299 6.29516 14 7.84448C15.7009 6.29516 17.3797 5.62484 18.4716 6.25513C19.5635 6.88542 19.8216 8.67407 19.331 10.9227C21.5234 11.6202 22.9432 12.7394 22.9432 14C22.9432 15.2606 21.5234 16.3789 19.331 17.0782H19.3302ZM13.0954 8.74903C12.8788 8.55296 12.6534 8.36681 12.42 8.19114C11.3323 7.37773 10.5104 7.16309 10.1671 7.36154C9.82389 7.55915 9.59903 8.37852 9.75916 9.72682C9.79323 10.0053 9.84092 10.2941 9.90395 10.5922C10.5466 10.4514 11.1967 10.3468 11.851 10.2788C12.2556 9.72257 12.673 9.21067 13.0963 8.74903H13.0954ZM16.1489 10.2788C16.832 10.3503 17.4844 10.4568 18.0951 10.5922C18.159 10.2941 18.2076 10.0045 18.2399 9.72682C18.4018 8.37852 18.1761 7.55915 17.8328 7.36154C17.4895 7.16309 16.6676 7.37773 15.5799 8.19114C15.3462 8.36679 15.1205 8.55294 14.9037 8.74903C15.327 9.21067 15.7443 9.72257 16.1489 10.2788ZM14.4497 10.1723C14.3006 9.99342 14.1507 9.81966 14 9.65357C13.8492 9.81966 13.6993 9.99257 13.5503 10.1723C13.85 10.1659 14.1499 10.1659 14.4497 10.1723ZM10.9099 16.3031C10.7545 16.0468 10.6045 15.7873 10.4601 15.5246C10.3792 15.7435 10.3043 15.959 10.2361 16.1728C10.455 16.2205 10.6799 16.2639 10.909 16.3031H10.9099ZM12.5554 16.5024C13.5171 16.5738 14.4828 16.5738 15.4445 16.5024C15.9873 15.7051 16.4701 14.8687 16.8891 14C16.4701 13.1313 15.9873 12.2949 15.4445 11.4976C14.4828 11.4262 13.5171 11.4262 12.5554 11.4976C12.0127 12.2949 11.5298 13.1313 11.1109 14C11.5298 14.8687 12.0127 15.7051 12.5554 16.5024ZM17.5398 12.4754C17.6207 12.2565 17.6957 12.041 17.7638 11.8272C17.5405 11.7788 17.3162 11.7353 17.0909 11.6969C17.246 11.9532 17.3957 12.2127 17.5398 12.4754ZM9.00026 12.1577C8.71067 12.2514 8.43641 12.3536 8.17918 12.4643C6.93138 12.9992 6.33431 13.6039 6.33431 14C6.33431 14.3961 6.93053 15.0008 8.17918 15.5357C8.43641 15.6464 8.71067 15.7486 9.00026 15.8423C9.18934 15.2461 9.42357 14.6277 9.70294 14C9.43449 13.3995 9.1999 12.7844 9.00026 12.1577ZM10.2353 11.8272C10.3043 12.0402 10.3792 12.2565 10.4601 12.4745C10.6045 12.2122 10.7545 11.9529 10.9099 11.6969C10.6799 11.7361 10.455 11.7795 10.2361 11.8272H10.2353ZM18.9997 15.8423C19.2893 15.7486 19.5635 15.6464 19.8208 15.5357C21.0686 15.0008 21.6656 14.3961 21.6656 14C21.6656 13.6039 21.0694 12.9992 19.8208 12.4643C19.5518 12.3498 19.2779 12.2474 18.9997 12.1577C18.8106 12.7539 18.5764 13.3723 18.297 14C18.5764 14.6277 18.8106 15.2452 18.9997 15.8423ZM17.7647 16.1728C17.6957 15.9599 17.6207 15.7435 17.5398 15.5255C17.3954 15.7878 17.2455 16.0471 17.0901 16.3031C17.3201 16.2639 17.5449 16.2205 17.7638 16.1728H17.7647Z" fill="#011221"/>
</svg>
