<svg width="52" height="49" viewBox="0 0 52 49" fill="none" xmlns="http://www.w3.org/2000/svg">
<g opacity="0.4">
<g clip-path="url(#clip0_2912_494)">
<path d="M36.383 18.156C35.6196 18.4937 34.81 18.7155 33.981 18.814C34.8548 18.2914 35.5087 17.469 35.821 16.5C35.001 16.988 34.102 17.33 33.165 17.515C32.5356 16.8416 31.7014 16.395 30.792 16.2446C29.8826 16.0942 28.9489 16.2485 28.1363 16.6834C27.3236 17.1184 26.6774 17.8097 26.2981 18.6498C25.9188 19.4899 25.8277 20.4318 26.039 21.329C24.3761 21.2456 22.7493 20.8135 21.2643 20.0607C19.7792 19.3078 18.4691 18.251 17.419 16.959C17.0473 17.5974 16.852 18.3232 16.853 19.062C16.853 20.512 17.591 21.793 18.713 22.543C18.049 22.5221 17.3996 22.3428 16.819 22.02V22.072C16.8192 23.0377 17.1534 23.9736 17.7648 24.721C18.3763 25.4685 19.2275 25.9815 20.174 26.173C19.5576 26.34 18.9113 26.3646 18.284 26.245C18.5509 27.0762 19.071 27.8032 19.7716 28.3241C20.4722 28.845 21.3181 29.1338 22.191 29.15C21.3235 29.8313 20.3302 30.335 19.2679 30.6322C18.2056 30.9293 17.0951 31.0142 16 30.882C17.9117 32.1114 20.1371 32.7641 22.41 32.762C30.103 32.762 34.31 26.389 34.31 20.862C34.31 20.682 34.305 20.5 34.297 20.322C35.1159 19.7302 35.8226 18.997 36.384 18.157L36.383 18.156Z" fill="#607B96"/>
</g>
</g>
<defs>
<clipPath id="clip0_2912_494">
<rect width="24" height="24" fill="white" transform="translate(14 12.5)"/>
</clipPath>
</defs>
</svg>
